<svg id="Group_1670" data-name="Group 1670" xmlns="http://www.w3.org/2000/svg" width="277.786" height="97" viewBox="0 0 277.786 97">
  <path id="Path_1812" data-name="Path 1812" d="M173.142,123.441v1.946h-9.571V111.433h9.394v1.946h-7.193v3.97H172v1.827h-6.23v4.265Z" transform="translate(-49.237 -42.188)" fill="#c2366f"/>
  <path id="Path_1813" data-name="Path 1813" d="M178.61,125.583a4.415,4.415,0,0,1-1.926-.422,4.808,4.808,0,0,1-1.533-1.15,5.326,5.326,0,0,1-1.013-1.7,6.2,6.2,0,0,1-.019-4.127,5.373,5.373,0,0,1,.963-1.681,4.641,4.641,0,0,1,1.454-1.149,4.237,4.237,0,0,1,4.019.177,4.352,4.352,0,0,1,1.474,1.523V111.04h2.162v11.792a.854.854,0,0,0,.128.531.62.62,0,0,0,.462.176v1.848q-.335.059-.541.078c-.137.013-.252.02-.344.02a1.631,1.631,0,0,1-1.061-.334,1.181,1.181,0,0,1-.452-.865l-.039-.766a4.1,4.1,0,0,1-1.553,1.513A4.395,4.395,0,0,1,178.61,125.583Zm.53-1.847a2.94,2.94,0,0,0,.944-.158,3.3,3.3,0,0,0,.864-.432,3.027,3.027,0,0,0,.678-.648,2.323,2.323,0,0,0,.4-.806V119a3.245,3.245,0,0,0-.5-.9,3.571,3.571,0,0,0-.737-.707,3.365,3.365,0,0,0-.874-.452,2.884,2.884,0,0,0-.934-.157,2.445,2.445,0,0,0-1.189.294,3.074,3.074,0,0,0-.934.786,3.9,3.9,0,0,0-.619,1.121,3.82,3.82,0,0,0-.226,1.3,3.631,3.631,0,0,0,.246,1.336,3.5,3.5,0,0,0,.678,1.1,3.337,3.337,0,0,0,.993.747A2.707,2.707,0,0,0,179.14,123.736Z" transform="translate(-49.237 -42.188)" fill="#c2366f"/>
  <path id="Path_1814" data-name="Path 1814" d="M189.712,125.583a2.908,2.908,0,0,1-2.437-1.051,5.011,5.011,0,0,1-.826-3.135v-6.289h2.162v5.857q0,2.771,1.965,2.771a3.025,3.025,0,0,0,1.749-.57,3.652,3.652,0,0,0,1.278-1.651v-6.407h2.162v7.724a.855.855,0,0,0,.127.531.624.624,0,0,0,.462.176v1.848c-.222.039-.406.065-.55.078s-.282.02-.412.02a1.573,1.573,0,0,1-1-.324,1.073,1.073,0,0,1-.432-.836l-.04-1.022a4.575,4.575,0,0,1-1.788,1.7A5.1,5.1,0,0,1,189.712,125.583Z" transform="translate(-49.237 -42.188)" fill="#c2366f"/>
  <path id="Path_1815" data-name="Path 1815" d="M197.431,120.237a5.6,5.6,0,0,1,.374-2.043,5,5,0,0,1,2.751-2.84,5.513,5.513,0,0,1,2.2-.423,5.189,5.189,0,0,1,2.742.7,4.426,4.426,0,0,1,1.719,1.857l-2.1.668a2.7,2.7,0,0,0-1-1.012,2.739,2.739,0,0,0-1.4-.363,2.887,2.887,0,0,0-1.209.255,2.919,2.919,0,0,0-.972.717,3.417,3.417,0,0,0-.649,1.091,3.957,3.957,0,0,0-.236,1.395,3.842,3.842,0,0,0,.245,1.386,3.552,3.552,0,0,0,.669,1.11,3.062,3.062,0,0,0,.982.737,2.746,2.746,0,0,0,1.19.266,2.955,2.955,0,0,0,.786-.108,2.817,2.817,0,0,0,1.287-.757,1.716,1.716,0,0,0,.364-.55l2.122.629a4.2,4.2,0,0,1-1.71,1.9,5.288,5.288,0,0,1-2.83.737,5.369,5.369,0,0,1-2.182-.432,5.123,5.123,0,0,1-1.68-1.17,5.293,5.293,0,0,1-1.081-1.7A5.481,5.481,0,0,1,197.431,120.237Z" transform="translate(-49.237 -42.188)" fill="#c2366f"/>
  <path id="Path_1816" data-name="Path 1816" d="M211.656,125.583a3.837,3.837,0,0,1-1.385-.245,3.348,3.348,0,0,1-1.1-.678,3.171,3.171,0,0,1-.727-1.022,3.08,3.08,0,0,1-.266-1.278,2.75,2.75,0,0,1,.315-1.317,3.072,3.072,0,0,1,.894-1.022,4.333,4.333,0,0,1,1.376-.668,6.181,6.181,0,0,1,1.759-.236,8.059,8.059,0,0,1,1.434.128,7.222,7.222,0,0,1,1.278.344v-.708a2.381,2.381,0,0,0-.649-1.778,2.55,2.55,0,0,0-1.867-.639,4.505,4.505,0,0,0-1.621.305,8.172,8.172,0,0,0-1.641.874l-.668-1.376a7.294,7.294,0,0,1,4.127-1.336,4.705,4.705,0,0,1,3.3,1.081,4,4,0,0,1,1.179,3.1v3.715c0,.459.189.694.57.707v1.848q-.315.059-.541.078c-.151.013-.3.02-.442.02a1.389,1.389,0,0,1-.973-.315,1.341,1.341,0,0,1-.422-.805l-.059-.649a4.591,4.591,0,0,1-1.7,1.386A4.993,4.993,0,0,1,211.656,125.583Zm.59-1.592a3.881,3.881,0,0,0,1.483-.285,2.549,2.549,0,0,0,1.091-.8,1,1,0,0,0,.413-.746v-1.357a6.6,6.6,0,0,0-1.169-.334,6.511,6.511,0,0,0-1.209-.118,3.312,3.312,0,0,0-1.9.5,1.537,1.537,0,0,0-.738,1.327,1.673,1.673,0,0,0,.57,1.287A2.07,2.07,0,0,0,212.246,123.991Z" transform="translate(-49.237 -42.188)" fill="#c2366f"/>
  <path id="Path_1817" data-name="Path 1817" d="M225.166,124.856a11.047,11.047,0,0,1-1.14.442,4.818,4.818,0,0,1-1.553.246,3.278,3.278,0,0,1-.963-.138,2.353,2.353,0,0,1-.8-.412,1.881,1.881,0,0,1-.54-.718,2.63,2.63,0,0,1-.2-1.071v-6.426h-1.356v-1.671h1.356v-3.38h2.162v3.38h2.24v1.671h-2.24v5.738a1.066,1.066,0,0,0,.344.8,1.165,1.165,0,0,0,.757.246,2.4,2.4,0,0,0,.864-.157c.275-.105.479-.19.61-.256Z" transform="translate(-49.237 -42.188)" fill="#c2366f"/>
  <path id="Path_1818" data-name="Path 1818" d="M226.253,113.418V111.04h2.161v2.378Zm0,11.969V115.108h2.161v10.279Z" transform="translate(-49.237 -42.188)" fill="#c2366f"/>
  <path id="Path_1819" data-name="Path 1819" d="M235.367,125.583a5.345,5.345,0,0,1-2.191-.432,5.031,5.031,0,0,1-2.722-2.86,5.718,5.718,0,0,1,0-4.068,5.041,5.041,0,0,1,1.071-1.7,5.235,5.235,0,0,1,1.671-1.16,5.37,5.37,0,0,1,6.014,1.16,5.072,5.072,0,0,1,1.071,1.7,5.732,5.732,0,0,1,0,4.068,5.052,5.052,0,0,1-1.071,1.7,5.242,5.242,0,0,1-1.671,1.16A5.3,5.3,0,0,1,235.367,125.583Zm-3.065-5.306a3.888,3.888,0,0,0,.235,1.375,3.419,3.419,0,0,0,.648,1.091,3.033,3.033,0,0,0,.973.727,2.881,2.881,0,0,0,2.418,0,2.964,2.964,0,0,0,.973-.737,3.534,3.534,0,0,0,.648-1.1,4.1,4.1,0,0,0,0-2.742,3.516,3.516,0,0,0-.648-1.11,2.978,2.978,0,0,0-.973-.737,2.787,2.787,0,0,0-1.209-.265,2.654,2.654,0,0,0-1.189.275,3.082,3.082,0,0,0-.973.747,3.664,3.664,0,0,0-.658,1.11A3.767,3.767,0,0,0,232.3,120.277Z" transform="translate(-49.237 -42.188)" fill="#c2366f"/>
  <path id="Path_1820" data-name="Path 1820" d="M251.477,125.387h-2.162v-5.759a3.757,3.757,0,0,0-.462-2.113,1.562,1.562,0,0,0-1.366-.658,2.667,2.667,0,0,0-.943.177,3.334,3.334,0,0,0-.885.5,3.919,3.919,0,0,0-.736.767,3.522,3.522,0,0,0-.5.973v6.112H242.26V115.108h1.965v2.064a4.167,4.167,0,0,1,1.71-1.641,5.16,5.16,0,0,1,2.476-.6,3.051,3.051,0,0,1,1.513.334,2.5,2.5,0,0,1,.934.914,4.015,4.015,0,0,1,.481,1.336,8.932,8.932,0,0,1,.138,1.6Z" transform="translate(-49.237 -42.188)" fill="#c2366f"/>
  <path id="Path_1821" data-name="Path 1821" d="M259.436,125.387v-8.353H258.06v-1.671h1.376v-.412a4.674,4.674,0,0,1,.884-3.007,2.914,2.914,0,0,1,2.4-1.1,4.676,4.676,0,0,1,1.238.167,5.582,5.582,0,0,1,1.16.462l-.472,1.612a2.938,2.938,0,0,0-.7-.295,2.741,2.741,0,0,0-.776-.118,1.341,1.341,0,0,0-1.169.57,2.84,2.84,0,0,0-.4,1.651v.471h2.634v1.671H261.6v8.353Z" transform="translate(-49.237 -42.188)" fill="#c2366f"/>
  <path id="Path_1822" data-name="Path 1822" d="M269.9,125.583a5.342,5.342,0,0,1-2.191-.432,5.032,5.032,0,0,1-2.722-2.86,5.718,5.718,0,0,1,0-4.068,5.01,5.01,0,0,1,1.071-1.7,5.242,5.242,0,0,1,1.67-1.16,5.676,5.676,0,0,1,4.344,0,5.242,5.242,0,0,1,1.67,1.16,5.025,5.025,0,0,1,1.071,1.7,5.718,5.718,0,0,1,0,4.068,5.006,5.006,0,0,1-1.071,1.7,5.226,5.226,0,0,1-1.67,1.16A5.3,5.3,0,0,1,269.9,125.583Zm-3.066-5.306a3.888,3.888,0,0,0,.236,1.375,3.384,3.384,0,0,0,.649,1.091,3.011,3.011,0,0,0,.973.727,2.878,2.878,0,0,0,2.417,0,2.954,2.954,0,0,0,.973-.737,3.534,3.534,0,0,0,.648-1.1,4.1,4.1,0,0,0,0-2.742,3.516,3.516,0,0,0-.648-1.11,2.967,2.967,0,0,0-.973-.737,2.787,2.787,0,0,0-1.209-.265,2.657,2.657,0,0,0-1.189.275,3.093,3.093,0,0,0-.973.747,3.643,3.643,0,0,0-.658,1.11A3.768,3.768,0,0,0,266.839,120.277Z" transform="translate(-49.237 -42.188)" fill="#c2366f"/>
  <path id="Path_1823" data-name="Path 1823" d="M282.575,116.975a4.843,4.843,0,0,0-2.23.58,3.049,3.049,0,0,0-1.386,1.543v6.289H276.8V115.108H278.8v2.3a4.71,4.71,0,0,1,1.386-1.7,3.36,3.36,0,0,1,1.837-.7h.324a1.17,1.17,0,0,1,.226.019Z" transform="translate(-49.237 -42.188)" fill="#c2366f"/>
  <path id="Path_1824" data-name="Path 1824" d="M288.884,125.387V111.433h2.2v12.008h7.488v1.946Z" transform="translate(-49.237 -42.188)" fill="#c2366f"/>
  <path id="Path_1825" data-name="Path 1825" d="M299.693,113.418V111.04h2.162v2.378Zm0,11.969V115.108h2.162v10.279Z" transform="translate(-49.237 -42.188)" fill="#c2366f"/>
  <path id="Path_1826" data-name="Path 1826" d="M304.691,125.387v-8.353h-1.376v-1.671h1.376v-.412a4.674,4.674,0,0,1,.884-3.007,2.913,2.913,0,0,1,2.4-1.1,4.676,4.676,0,0,1,1.238.167,5.582,5.582,0,0,1,1.16.462l-.472,1.612a2.955,2.955,0,0,0-.7-.295,2.741,2.741,0,0,0-.776-.118,1.341,1.341,0,0,0-1.169.57,2.84,2.84,0,0,0-.4,1.651v.471h2.633v1.671h-2.633v8.353Z" transform="translate(-49.237 -42.188)" fill="#c2366f"/>
  <path id="Path_1827" data-name="Path 1827" d="M315.189,125.583a5.477,5.477,0,0,1-2.181-.422,5.071,5.071,0,0,1-1.681-1.15,5.2,5.2,0,0,1-1.081-1.69,5.489,5.489,0,0,1-.383-2.044,5.564,5.564,0,0,1,.383-2.054,5.3,5.3,0,0,1,1.081-1.71,4.992,4.992,0,0,1,1.681-1.159,5.51,5.51,0,0,1,2.2-.423,5.306,5.306,0,0,1,2.171.432,5.21,5.21,0,0,1,1.661,1.15,4.927,4.927,0,0,1,1.052,1.671,5.557,5.557,0,0,1,.363,1.994c0,.158-.006.305-.019.443s-.027.252-.04.344h-8.234a3.513,3.513,0,0,0,.324,1.238,3.245,3.245,0,0,0,.688.953,2.972,2.972,0,0,0,.963.619,3.016,3.016,0,0,0,1.13.216,3.443,3.443,0,0,0,.855-.108,3.042,3.042,0,0,0,.776-.314,2.786,2.786,0,0,0,.629-.5,2.357,2.357,0,0,0,.432-.649l1.848.531a4.282,4.282,0,0,1-1.759,1.9A5.447,5.447,0,0,1,315.189,125.583Zm3.125-6.112a3.451,3.451,0,0,0-.324-1.2,3.1,3.1,0,0,0-.678-.934,3.039,3.039,0,0,0-.963-.6,3.149,3.149,0,0,0-1.16-.216,3.075,3.075,0,0,0-2.1.815,2.958,2.958,0,0,0-.668.934,3.6,3.6,0,0,0-.314,1.2Z" transform="translate(-49.237 -42.188)" fill="#c2366f"/>
  <path id="Path_1828" data-name="Path 1828" d="M283.293,90.791H269.117a1.8,1.8,0,0,1-1.678-1.853A3.135,3.135,0,0,1,268.4,87a21.166,21.166,0,0,0,7.045,1.1c8.571,0,14.33-4.2,14.33-10.459a8.63,8.63,0,0,0-2.669-6.2l5.156-.009-1.8-5.72h0l-7.18,2.992a19.052,19.052,0,0,0-7.841-1.574c-8.633,0-14.434,4.224-14.434,10.51a9.34,9.34,0,0,0,4.766,8.09c-2.607,2.176-3.99,4.672-3.99,7.133,0,1.947,1.383,5.148,7.486,5.148h13.758c3.051,0,3.4,1.376,3.4,2.411,0,7.973-21.842,8.091-23.384,1.6h-1.321c1.021,9.373,31.655,9.1,31.655-4.109C293.386,92.842,289.457,90.791,283.293,90.791Zm-7.847-21.44c2.328,0,3.771,1.968,3.771,8.287,0,6.907-1.863,8.286-3.771,8.286-2.392,0-3.875-2.053-3.875-8.286C271.571,71.34,273.12,69.351,275.446,69.351Z" transform="translate(-49.237 -42.188)" fill="#fff"/>
  <g id="Group_1670-2" data-name="Group 1670" transform="translate(113.197 15.514)">
    <path id="Path_1829" data-name="Path 1829" d="M203.64,97.63H185.373V96.522l3.548-1.849L177.18,76.851l15.994-16.215-4.412-1.787V57.7h13.166v1.117L198.3,60.632,186.7,72.538l14.258,22.135,2.686,1.879Zm-22.549,0H162.434V96.513l4.014-1.834V60.648l-3.91-1.834V57.7h18.553v1.112l-3.911,1.834V94.684l3.911,1.833Z" transform="translate(-162.434 -57.702)" fill="#fff"/>
  </g>
  <g id="Group_1671" data-name="Group 1671" transform="translate(156.064 24.898)">
    <path id="Path_1830" data-name="Path 1830" d="M222.261,97.63H205.3V96.551l3.465-1.834V72.367l-3.128-1.773v-1.2l13.338-2.307V94.668l3.285,1.886Z" transform="translate(-205.301 -67.086)" fill="#fff"/>
  </g>
  <g id="Group_1672" data-name="Group 1672" transform="translate(174.552 24.898)">
    <path id="Path_1831" data-name="Path 1831" d="M260.715,97.63h-17.04V96.548l3.284-1.833V77.2a5,5,0,0,0-5.106-4.986,7.264,7.264,0,0,0-4.569,1.321V94.7l3.545,1.833v1.1h-17.04V96.548l3.284-1.834v-22.3l-3.18-1.825V69.4l12.53-2.313.447,3.574a19.069,19.069,0,0,1,10.659-3.574c5.676,0,9.641,3.729,9.641,9.068V94.7l3.545,1.833Z" transform="translate(-223.789 -67.086)" fill="#fff"/>
  </g>
  <g id="Group_1673" data-name="Group 1673" transform="translate(245.25 24.898)">
    <path id="Path_1832" data-name="Path 1832" d="M306.1,98.151a26,26,0,0,1-11.221-2.482l-.394-.217.65-5.91,1.4.254s5.047,6.075,9.744,6.075c3.44,0,5.409-2.1,5.409-4.546,0-2.4-3.375-3.949-6.948-5.59-4.661-2.141-9.944-4.567-9.944-9.79,0-5.547,4.89-8.859,13.082-8.859a30.793,30.793,0,0,1,10.684,2.032l.465.193-.7,6.75-1.417-.258s-5.466-6.229-9.221-6.229c-2.27,0-3.516,1.707-3.516,3.869,0,2.278,3.3,3.793,6.787,5.4,4.785,2.2,10.209,4.694,10.209,10.19C321.165,94.571,315.253,98.151,306.1,98.151Z" transform="translate(-294.487 -67.086)" fill="#fff"/>
  </g>
  <path id="Path_1833" data-name="Path 1833" d="M218.976,64.878l-10.208-2.169V54.037l10.208,2.169Z" transform="translate(-49.237 -42.188)" fill="#c2366f"/>
  <path id="Path_1834" data-name="Path 1834" d="M120.818,50.887l-3.042-8.021-6.743,4.351,3.055,8.013Zm-39.107,13.9-6.743-4.352-3.042,8.021,6.73,4.343ZM74.535,118.96l3.683-8.383,9.5,3.417L78.959,75.411,73.285,98.886l-14.17-6.007ZM97.3,105.637l6.45,7.856,9.476-43.127L97.3,89.948,82.518,77.18l8.347,36.314Zm28.37-54.6L122.7,55.25a43.138,43.138,0,1,1-15.9-6.974l1.074-5.024a48.522,48.522,0,1,0,17.793,7.787Zm-5.588,67.885L135.5,92.879l-14.169,6.007-5.675-23.475-8.763,38.576,9.505-3.41Zm-6.07-56.239,3.056,8.013,6.729-4.343-3.042-8.021Z" transform="translate(-49.237 -42.188)" fill="#c2366f"/>
  <path id="Path_1835" data-name="Path 1835" d="M324.115,97.651a3.092,3.092,0,0,1-1.151-.211,2.8,2.8,0,0,1-.917-.584,2.617,2.617,0,0,1-.6-.878,2.929,2.929,0,0,1,0-2.2,2.572,2.572,0,0,1,.6-.874,2.838,2.838,0,0,1,.917-.58,3.092,3.092,0,0,1,1.151-.211,3.128,3.128,0,0,1,1.155.211,2.881,2.881,0,0,1,.924.58,2.607,2.607,0,0,1,.611.874,2.892,2.892,0,0,1,0,2.2,2.653,2.653,0,0,1-.611.878,2.84,2.84,0,0,1-.924.584A3.128,3.128,0,0,1,324.115,97.651Zm0-.376a2.65,2.65,0,0,0,.974-.177,2.415,2.415,0,0,0,.787-.491,2.283,2.283,0,0,0,.526-.756,2.4,2.4,0,0,0,.191-.963,2.359,2.359,0,0,0-.706-1.7,2.424,2.424,0,0,0-.782-.506,2.6,2.6,0,0,0-.99-.184,2.569,2.569,0,0,0-.986.184,2.371,2.371,0,0,0-.775.506,2.333,2.333,0,0,0-.511.756,2.375,2.375,0,0,0-.184.933,2.426,2.426,0,0,0,.184.944,2.363,2.363,0,0,0,.511.763,2.3,2.3,0,0,0,.775.51A2.569,2.569,0,0,0,324.115,97.275Zm-1.243-4.1h1.5a.941.941,0,0,1,.43.1,1.112,1.112,0,0,1,.341.26,1.258,1.258,0,0,1,.223.361,1.073,1.073,0,0,1,.08.407,1.117,1.117,0,0,1-.168.591.893.893,0,0,1-.446.383l.791,1.274H324.8l-.706-1.135H323.6v1.135h-.729Zm1.435,1.611a.384.384,0,0,0,.3-.126.526.526,0,0,0,.111-.357.478.478,0,0,0-.127-.365.427.427,0,0,0-.3-.119h-.69v.967Z" transform="translate(-49.237 -42.188)" fill="#fff"/>
</svg>
