<svg xmlns="http://www.w3.org/2000/svg" viewBox="0 0 700 371.73"><defs><style>.cls-1{font-size:60px;font-family:BwDarius-Bold, Bw Darius;font-weight:700;}.cls-1,.cls-2{fill:#252f38;}</style></defs><g id="Layer_2" data-name="Layer 2"><g id="Layer_1-2" data-name="Layer 1"><text class="cls-1" transform="translate(151.28 52.2)">What’s your</text><text class="cls-1" transform="translate(322.91 359.13)">?</text><path class="cls-2" d="M120.59,186C96.39,168.38,58,162.58,58,143.42c0-10,5.13-15.65,13.86-15.65l48.74,32.33V125.26a189.14,189.14,0,0,0-48.74-7c-42.85,0-70.57,15.14-70.57,43.88,0,47.72,81.6,46.7,81.6,75.44,0,12.06-8.72,19.24-23.35,19.24L6.16,225.28l-2.82-.51L0,253.25c14.11,7.7,38.75,13.09,59.53,13.09,25,0,46.58-5.56,61.06-15Z"/><path class="cls-2" d="M267.66,239.7a72.86,72.86,0,0,1-28.79,6.43c-11.54,0-16.93-7.95-16.93-19.75V133.74h45.72v-9.49H219.89v-40h-2.57L140.6,130.66v3.08h17.19v95.2c0,24.63,22.32,40.8,53.11,40.8a84,84,0,0,0,56.76-22.59Z"/><path class="cls-2" d="M494.85,150.68l-4.11-29h-2.57l-66.46,14.37v2.57l11.3,8.72V257.42l-11.81,7.19v2.56H512v-2.56l-14.88-8.47V163.76A55.24,55.24,0,0,1,512.55,162c18,0,30.28,5.39,35.41,11.29L551,174l5.9-47.73a34.15,34.15,0,0,0-17.7-4.62C526.92,121.68,510.5,131.43,494.85,150.68Z"/><polygon class="cls-2" points="656.12 126.81 670.75 134 641.49 194.56 608.91 134 619.94 126.81 619.94 124.25 561.8 124.25 561.8 175.67 606.34 267.94 561.8 294.29 561.8 310.5 598.38 320.55 600.95 320.55 685.89 134 700 126.81 700 124.25 656.12 124.25 656.12 126.81"/><path class="cls-2" d="M376.19,135.65l-4.61-12.17-10.23,6.6L366,142.23ZM316.9,156.71l-10.23-6.59-4.61,12.16,10.2,6.58ZM306,238.86l5.58-12.71L326,231.33l-13.29-58.5-8.6,35.59-21.48-9.11Zm34.51-20.2,9.78,11.91,14.37-65.39-24.15,29.69-22.41-19.36,12.66,55.06Zm43-82.78-4.5,6.38a65.55,65.55,0,1,1-24.11-10.57l1.63-7.62a73.54,73.54,0,1,0,58.15,72.74A73.44,73.44,0,0,0,383.55,135.88ZM375.07,238.8l23.38-39.49L377,208.42l-8.6-35.59-13.29,58.49,14.41-5.17Zm-9.2-85.27,4.63,12.15,10.21-6.58-4.61-12.16Z"/></g></g></svg>