<svg xmlns="http://www.w3.org/2000/svg" viewBox="0 0 652.05 101.52"><defs><style>.cls-1{font-size:48px;font-family:BwDarius-Bold, Bw Darius;font-weight:700;}.cls-1,.cls-2{fill:#252f38;}</style></defs><g id="Layer_2" data-name="Layer 2"><g id="Layer_1-2" data-name="Layer 1"><text class="cls-1" transform="translate(0.48 66.6)">What’s your</text><text class="cls-1" transform="translate(624.69 66.6)">?</text><path class="cls-2" d="M372.15,43.74c-10.4-7.59-26.89-10.08-26.89-18.31,0-4.3,2.2-6.72,5.95-6.72L372.15,32.6v-15a81.39,81.39,0,0,0-20.94-3c-18.41,0-30.32,6.5-30.32,18.85C320.89,54,356,53.54,356,65.89c0,5.18-3.75,8.27-10,8.27L323,60.6l-1.21-.22-1.44,12.23c6.07,3.31,16.65,5.62,25.58,5.62,10.74,0,20-2.38,26.23-6.44Z"/><path class="cls-2" d="M435.32,66.79A31.36,31.36,0,0,1,423,69.56c-5,0-7.28-3.42-7.28-8.49V21.27h19.64V17.2H414.8V0h-1.1l-33,20v1.32h7.39v40.9c0,10.58,9.59,17.53,22.81,17.53A36.05,36.05,0,0,0,435.32,70Z"/><path class="cls-2" d="M532.92,28.55l-1.77-12.46h-1.1L501.5,22.27v1.1l4.85,3.75V74.41l-5.07,3.08v1.1h39v-1.1l-6.39-3.64V34.17a23.72,23.72,0,0,1,6.61-.77c7.72,0,13,2.31,15.21,4.85l1.33.33,2.53-20.5a14.69,14.69,0,0,0-7.6-2C546.7,16.09,539.64,20.28,532.92,28.55Z"/><polygon class="cls-2" points="602.2 18.3 608.48 21.39 595.91 47.4 581.91 21.39 586.65 18.3 586.65 17.2 561.68 17.2 561.68 39.29 580.81 78.92 561.68 90.24 561.68 97.21 577.39 101.52 578.5 101.52 614.98 21.39 621.04 18.3 621.04 17.2 602.2 17.2 602.2 18.3"/><path class="cls-2" d="M481.94,22.09l-2-5.22-4.39,2.83,2,5.22Zm-25.47,9.05-4.39-2.83-2,5.22,4.38,2.83ZM451.8,66.43,454.2,61l6.19,2.22-5.71-25.13L451,53.35l-9.23-3.91Zm14.83-8.68,4.2,5.12L477,34.78,466.63,47.53,457,39.22l5.44,23.65ZM485.1,22.19l-1.93,2.74a28.23,28.23,0,1,1-15.94-5.16,28.66,28.66,0,0,1,5.59.62l.7-3.27a31.62,31.62,0,1,0,11.58,5.07Zm-3.63,44.22,10-17-9.23,3.91-3.7-15.29-5.7,25.13L479.07,61Zm-4-36.63,2,5.22,4.39-2.83-2-5.23Z"/></g></g></svg>