<svg xmlns="http://www.w3.org/2000/svg" width="60" height="52" viewBox="0 0 60 52">
    <g data-name="Group 1705">
        <path data-name="Path 1850" d="M14.6 67.821h50.364a4.873 4.873 0 0 0 4.818-4.916V28.7a4.871 4.871 0 0 0-4.818-4.913h-8.125l-3.92-7.965H26.642l-3.919 7.965H14.6A4.871 4.871 0 0 0 9.782 28.7v34.205a4.873 4.873 0 0 0 4.818 4.916zM14.258 28.7a.346.346 0 0 1 .342-.348h10.885l3.915-7.967h20.759l3.92 7.965h10.885a.346.346 0 0 1 .342.348v34.207a.347.347 0 0 1-.342.351H14.6a.347.347 0 0 1-.342-.351z" transform="translate(-9.782 -15.821)" style="fill:#c2366f"/>
        <path data-name="Path 1851" d="M44.789 62.447a15.609 15.609 0 1 0-15.3-15.606 15.473 15.473 0 0 0 15.3 15.606zm0-26.647a11.044 11.044 0 1 1-10.828 11.041A10.948 10.948 0 0 1 44.789 35.8z" transform="translate(-14.788 -19.51)" style="fill:#c2366f"/>
    </g>
</svg>
