<svg xmlns="http://www.w3.org/2000/svg" width="70" height="62" viewBox="0 0 70 62">
    <g data-name="Group 1703">
        <path data-name="Path 1848" d="M62.811 28.362H54.2v-.969a14.691 14.691 0 0 0-14.6-14.745H22.017a14.691 14.691 0 0 0-14.6 14.746v27.994a3.534 3.534 0 0 0 2.163 3.274 3.476 3.476 0 0 0 3.825-.768l8.087-8.167h9.135v.973a14.691 14.691 0 0 0 14.6 14.746h18.1l8.088 8.168a3.476 3.476 0 0 0 3.825.768 3.533 3.533 0 0 0 2.174-3.282V43.109a14.692 14.692 0 0 0-14.603-14.747zM30.628 43.108v1.647h-9.72a3.474 3.474 0 0 0-2.482 1.037l-6.09 6.15V27.393a9.739 9.739 0 0 1 9.68-9.775H39.6a9.739 9.739 0 0 1 9.68 9.775v.969h-4.05a14.692 14.692 0 0 0-14.602 14.746zm18.651-9.774v1.647a9.739 9.739 0 0 1-9.68 9.775h-4.048v-1.647a9.739 9.739 0 0 1 9.68-9.775zm23.212 34.323-6.09-6.15a3.472 3.472 0 0 0-2.482-1.037H45.23a9.739 9.739 0 0 1-9.68-9.77v-.969h4.05A14.691 14.691 0 0 0 54.2 34.98v-1.647h8.61a9.739 9.739 0 0 1 9.68 9.775v24.55z" transform="translate(-7.414 -12.648)" style="fill:#c2366f"/>
    </g>
</svg>
