<svg xmlns="http://www.w3.org/2000/svg" width="60" height="60" viewBox="0 0 60 60">
    <g data-name="Group 1704">
        <path data-name="Path 1849" d="M42.846 72.846a30 30 0 1 0-30-30 30.034 30.034 0 0 0 30 30zm0-4.836a25.033 25.033 0 0 1-15.333-5.231 11.964 11.964 0 0 1 10.864-7.1h8.853a11.988 11.988 0 0 1 10.9 7.133 25.03 25.03 0 0 1-15.284 5.198zm-7.853-28.461a7.853 7.853 0 1 1 7.853 7.851 7.862 7.862 0 0 1-7.853-7.851zm7.853-21.867A25.144 25.144 0 0 1 61.8 59.366 16.876 16.876 0 0 0 48.488 50.9a12.689 12.689 0 1 0-11.291 0 16.85 16.85 0 0 0-13.348 8.42 25.143 25.143 0 0 1 19-41.639z" transform="translate(-12.846 -12.846)" style="fill:#c2366f"/>
    </g>
</svg>
